<svg width="102" height="99" viewBox="0 0 102 99" fill="none" xmlns="http://www.w3.org/2000/svg">
<rect x="31.3262" y="48.9961" width="16.3337" height="43.992" fill="white"/>
<rect x="53.9746" y="57.334" width="16.3337" height="40.943" transform="rotate(-90 53.9746 57.334)" fill="white"/>
<path d="M47.6829 0.0942909V16.5943C41.6822 17.5939 32.6836 18.5947 23.6836 29.5947C16.4836 38.3947 16.6836 49.5947 17.6836 54.0947C19.2836 65.6947 27.3503 73.2614 31.1836 75.5947C38.3836 81.9947 45.1836 81.5947 47.6836 80.5947V98.0947C38.0836 98.8947 27.0169 93.4281 22.6836 90.5947C8.68359 81.7947 2.8498 67.5947 1.6829 61.5947C-0.817101 53.4279 -2.4171 33.1943 11.1829 17.5943C24.7829 1.99429 41.1829 -0.572376 47.6829 0.0942909Z" fill="white"/>
<path d="M53.6843 98.0795L53.6843 81.5795C59.685 80.58 68.6836 79.5791 77.6836 68.5791C84.8836 59.7791 84.6836 48.5791 83.6836 44.0791C82.0836 32.4791 74.0169 24.9124 70.1836 22.5791C62.1836 17.5791 56.1836 17.5791 53.6836 17.5791L53.6836 0.0791057C63.2836 -0.720898 74.3503 4.74577 78.6836 7.5791C92.6836 16.3791 98.5174 30.5791 99.6843 36.5791C102.184 44.7459 103.784 64.9795 90.1843 80.5795C76.5843 96.1795 60.1843 98.7462 53.6843 98.0795Z" fill="white"/>
</svg>
